# xmcd
#
# Track frame offsets: 
#        150
#        8402
#        27804
#        40613
#        53423
#        64657
#        84359
#        99587
#        117715
#        129845
#        140832
#        154472
#        169137
#        179065
#
# Disc length: 2695 seconds
#
# Revision: 1
# Processed by: cddbd v1.5.1PL2 Copyright (c) Steve Scherf et al.
# Submitted via: ExactAudioCopy v0.95a5
#
DISCID=b30a850e
DTITLE=Barbara Clear - Live in Concert
DYEAR=2001
DGENRE=Acoustic
TTITLE0=Intro Flöte
TTITLE1=Tumbleweed
TTITLE2=Street of Dreams
TTITLE3=Life is Too Short
TTITLE4=Dirty Old Town
TTITLE5=Dog and Butterfly
TTITLE6=Me and Bobby McGee
TTITLE7=Any Man of Mine (Rock You)
TTITLE8=Hard to Make a Stand
TTITLE9=Don't Tell Me
TTITLE10=If You Can't Give me Love
TTITLE11=Ruby Tuesday
TTITLE12=Melancholy Child
TTITLE13=Ghostdance
EXTD=
EXTT0=
EXTT1=
EXTT2=
EXTT3=
EXTT4=
EXTT5=
EXTT6=
EXTT7=
EXTT8=
EXTT9=
EXTT10=
EXTT11=
EXTT12=
EXTT13=
PLAYORDER=
